# xmcd
#
# Track frame offsets: 
#        150
#        17251
#        36684
#        51091
#        68027
#        83941
#        100425
#        113665
#        133323
#        146364
#        162137
#        176445
#        190181
#        214246
#        230574
#        245597
#        260447
#        280861
#
# Disc length: 3906 seconds
#
# Revision: 0
# Processed by: cddbd v1.5.2PL0 Copyright (c) Steve Scherf et al.
# Submitted via: ExactAudioCopy v0.99pb3
#
DISCID=040f4012
DTITLE=Various Artist - Ultimate Country Driving Songs[CD2]
DYEAR=2011
DGENRE=Country
TTITLE0=1. Big and Rich - Radio
TTITLE1=2. Brooks and Dunn - Hillbilly Deluxe
TTITLE2=3. Adam Brand - Get On Down The Road
TTITLE3=4. The Wilkinsons - Fast Car
TTITLE4=5. Peter McWhirter - Get Away
TTITLE5=6. Joe Nichols - Comin' Back In A Cadillac
TTITLE6=7. Steve Forde - Drive 
TTITLE7=8. Travis Collins - Full Tank
TTITLE8=9. The McClymonts - Ghost Town
TTITLE9=10. Brad Paisley - Mud On The Tires
TTITLE10=11. John Denver - Take Me Home, Country Roads
TTITLE11=12. The Highwaymen - Highwayman
TTITLE12=13. Toby Keith - Time For Me To Ride
TTITLE13=14. The Sunny Cowgirls - Pick Me Up
TTITLE14=15. John Michael Montgomery - Kick It Up
TTITLE15=16. Shania Twain - In My Car (I'll Be The Driver)
TTITLE16=17. Neil Murray - Good Light In Broome
TTITLE17=18. Ian Simpson and John Kane - Foggy Mountain Breakdown
EXTD=
EXTT0=
EXTT1=
EXTT2=
EXTT3=
EXTT4=
EXTT5=
EXTT6=
EXTT7=
EXTT8=
EXTT9=
EXTT10=
EXTT11=
EXTT12=
EXTT13=
EXTT14=
EXTT15=
EXTT16=
EXTT17=
PLAYORDER=
